<mxfile host="app.diagrams.net" modified="2023-11-09T09:53:50.147Z" agent="Mozilla/5.0 (Macintosh; Intel Mac OS X 10_15_7) AppleWebKit/537.36 (KHTML, like Gecko) Chrome/119.0.0.0 Safari/537.36" etag="_BxDdkqIupBeuYEp6iC3" version="22.1.0" type="github">
  <diagram name="Page-1" id="IxKBDn9ICpdm7T-o7WNG">
    <mxGraphModel dx="1194" dy="735" grid="1" gridSize="10" guides="1" tooltips="1" connect="1" arrows="1" fold="1" page="1" pageScale="1" pageWidth="850" pageHeight="1100" math="0" shadow="0">
      <root>
        <mxCell id="0" />
        <mxCell id="1" parent="0" />
      </root>
    </mxGraphModel>
  </diagram>
</mxfile>
